HIERARCHY
ROOT Hips
{
	OFFSET 0.000000 0.000000 0.000000 
	CHANNELS 6 Xposition Yposition Zposition Zrotation Yrotation Xrotation
	JOINT LeftUpLeg
	{
		OFFSET 1.363060 -1.794630 0.839290 
		CHANNELS 3 Zrotation Yrotation Xrotation
		JOINT LeftLeg
		{
			OFFSET 2.448110 -6.726130 0.000000 
			CHANNELS 3 Zrotation Yrotation Xrotation
			JOINT LeftFoot
			{
				OFFSET 2.562200 -7.039590 0.000000 
				CHANNELS 3 Zrotation Yrotation Xrotation
				JOINT LeftToeBase
				{
					OFFSET 0.157640 -0.433110 2.322550 
					CHANNELS 3 Zrotation Yrotation Xrotation
					End Site
					{
						OFFSET 0.000000 0.000000 0.000000 
					}
				}
			}
		}
	}
	JOINT RightUpLeg
	{
		OFFSET -1.305520 -1.794630 0.839290 
		CHANNELS 3 Zrotation Yrotation Xrotation
		JOINT RightLeg
		{
			OFFSET -2.542530 -6.985550 0.000000 
			CHANNELS 3 Zrotation Yrotation Xrotation
			JOINT RightFoot
			{
				OFFSET -2.568260 -7.056230 0.000000 
				CHANNELS 3 Zrotation Yrotation Xrotation
				JOINT RightToeBase
				{
					OFFSET -0.164730 -0.452590 2.363150 
					CHANNELS 3 Zrotation Yrotation Xrotation
					End Site
					{
						OFFSET 0.000000 0.000000 0.000000 
					}
				}
			}
		}
	}
	JOINT Spine
	{
		OFFSET 0.028270 2.035590 -0.193380 
		CHANNELS 3 Zrotation Yrotation Xrotation
		JOINT Spine1
		{
			OFFSET 0.056720 2.048850 -0.042750 
			CHANNELS 3 Zrotation Yrotation Xrotation
			JOINT Neck1
			{
				OFFSET -0.054170 1.746240 0.172020 
				CHANNELS 3 Zrotation Yrotation Xrotation
				JOINT Head
				{
					OFFSET 0.104070 1.761360 -0.123970 
					CHANNELS 3 Zrotation Yrotation Xrotation
					End Site
					{
						OFFSET 0.000000 0.000000 0.000000 
					}
				}
			}
			JOINT LeftArm
			{
				OFFSET 3.362410 1.200890 -0.311210 
				CHANNELS 3 Zrotation Yrotation Xrotation
				JOINT LeftForeArm
				{
					OFFSET 4.983000 -0.000000 -0.000000 
					CHANNELS 3 Zrotation Yrotation Xrotation
					JOINT LeftHand
					{
						OFFSET 3.483560 -0.000000 -0.000000 
						CHANNELS 3 Zrotation Yrotation Xrotation
						JOINT LeftHandIndex1
						{
							OFFSET 0.715260 -0.000000 -0.000000 
							CHANNELS 3 Zrotation Yrotation Xrotation
							End Site
							{
								OFFSET 0.000000 0.000000 0.000000 
							}
						}
					}
				}
			}
			JOINT RightArm
			{
				OFFSET -3.136600 1.374050 -0.404650 
				CHANNELS 3 Zrotation Yrotation Xrotation
				JOINT RightForeArm
				{
					OFFSET -5.241900 -0.000000 -0.000000 
					CHANNELS 3 Zrotation Yrotation Xrotation
					JOINT RightHand
					{
						OFFSET -3.444170 -0.000000 -0.000000 
						CHANNELS 3 Zrotation Yrotation Xrotation
						JOINT RightHandIndex1
						{
							OFFSET -0.622530 -0.000000 -0.000000 
							CHANNELS 3 Zrotation Yrotation Xrotation
							End Site
							{
								OFFSET 0.000000 0.000000 0.000000 
							}
						}
					}
				}
			}
		}
	}
}
MOTION
Frames: 10
Frame Time: 0.041667
1.875385 16.142477 -3.987996 4.952855 -3.208456 39.726788 -14.237643 -14.612936 -80.556877 5.258954 16.308833 45.651173 -0.565247 -20.210261 5.112230 0.000100 0.070300 0.193200 8.511254 -0.804684 -82.114521 -11.548630 -16.043265 62.862110 -1.099398 5.517240 -14.247155 -0.049000 1.428000 -3.927200 8.644703 9.032447 28.962218 1.552551 4.843600 -7.006311 -3.170268 -10.625902 -2.946718 -2.372700 -6.113900 3.519100 -69.533836 -33.928453 81.091653 82.300867 -63.544323 -52.974622 0.833859 -0.210964 24.985448 -7.125000 0.000000 0.000000 -9.504064 69.773194 -49.202834 -15.082848 22.888477 -1.996305 -0.708884 0.708289 2.913041 7.125000 0.000000 0.000000 
1.943263 16.231993 -3.798887 3.622666 -6.322486 38.455895 -15.053795 -11.758714 -78.702491 5.371893 16.374040 46.084777 -0.404519 -19.577352 3.282675 0.000400 -0.134700 -0.370100 8.425379 0.829241 -79.109874 -11.089624 -15.745977 61.191827 -1.130840 6.770792 -13.598266 -0.037500 1.250400 -3.438100 7.911455 10.326871 29.503761 1.401135 5.332814 -7.163784 -3.319695 -10.762758 -3.099529 -2.434100 -6.188900 3.430700 -69.438569 -33.793685 81.017077 83.119415 -63.588154 -53.628291 0.846140 -0.202189 25.270714 -7.125000 0.000000 0.000000 -10.739398 69.550796 -51.210108 -15.072317 22.787404 -1.983423 -0.702516 0.715424 3.800485 7.125000 0.000000 0.000000 
1.999086 16.288607 -3.597032 2.514628 -9.654425 37.975421 -15.983574 -9.103184 -77.693133 5.483696 16.448734 46.515297 -0.239416 -18.849131 1.618224 0.001800 -0.273000 -0.750200 7.970045 2.592181 -77.014830 -10.648393 -15.443041 59.562270 -1.141481 8.158143 -12.734389 -0.012400 0.719600 -1.977500 7.107057 11.649555 29.957004 1.477273 5.840725 -7.229038 -3.332451 -10.859183 -3.259406 -2.435500 -6.240600 3.358700 -69.242851 -33.705040 80.937501 83.742978 -63.615405 -54.128756 0.846407 -0.198226 25.484270 -7.125000 0.000000 0.000000 -11.929545 69.319809 -52.932475 -15.031041 22.635925 -1.959360 -0.707039 0.726204 4.600316 7.125000 0.000000 0.000000 
2.047500 16.341269 -3.357038 1.353137 -13.719970 37.986655 -17.086419 -6.267017 -76.966149 5.576285 16.510958 46.879459 -0.022997 -17.728752 -0.379134 0.009400 -0.625600 -1.719200 7.211795 4.726084 -75.362924 -10.287922 -15.168736 58.190418 -1.162233 9.641706 -12.058652 -0.008800 0.605500 -1.663900 6.194749 13.262173 30.386604 1.796373 6.476565 -7.277527 -3.202426 -10.995248 -3.737197 -2.338000 -6.313200 3.156000 -69.118175 -33.666462 80.980864 84.407608 -63.644722 -54.669195 0.847630 -0.192524 25.655550 -7.125000 0.000000 0.000000 -13.171039 69.079002 -54.588872 -14.950107 22.410132 -1.919750 -0.731042 0.742273 5.437926 7.125000 0.000000 0.000000 
2.071707 16.327832 -3.309020 1.440794 -13.903720 38.280139 -17.570311 -6.171732 -77.395327 5.674260 16.600893 47.239888 -0.033631 -18.006441 -0.627626 0.005700 -0.488600 -1.342600 7.087216 4.590422 -75.457433 -10.144062 -15.084736 57.685596 -1.138093 9.576899 -11.809481 -0.023100 0.980900 -2.696200 6.259348 13.370158 30.434568 1.855172 6.530206 -7.362702 -3.202828 -11.144798 -4.107913 -2.298700 -6.393700 2.993000 -69.090302 -33.613611 81.046532 85.012807 -63.670340 -55.163954 0.863119 -0.190252 25.963015 -7.125000 0.000000 0.000000 -14.322737 68.820561 -56.041859 -14.880519 22.210259 -1.887208 -0.748518 0.751761 6.097142 7.125000 0.000000 0.000000 
2.097989 16.309751 -3.269499 1.576783 -13.917308 38.641595 -17.944220 -6.289361 -77.911598 5.766894 16.690805 47.584172 -0.053204 -18.226523 -0.701658 0.001400 -0.240900 -0.661800 6.902255 4.379327 -75.774786 -10.083536 -15.050711 57.479538 -1.121854 9.584510 -11.617150 -0.032100 1.155700 -3.177200 6.190618 13.328705 30.500499 1.859085 6.511857 -7.313448 -3.203434 -11.178026 -4.439044 -2.280700 -6.416300 2.860200 -68.797614 -33.557466 80.831942 85.622101 -63.684722 -55.653168 0.871703 -0.191158 26.230920 -7.125000 0.000000 0.000000 -15.409197 68.701339 -57.583599 -14.805849 22.025943 -1.864054 -0.746301 0.748096 6.862167 7.125000 0.000000 0.000000 
2.119429 16.295326 -3.224543 1.495034 -13.764920 39.040835 -18.071423 -6.315827 -78.417400 5.853186 16.769500 47.891109 -0.084832 -18.526047 -0.649665 0.000200 -0.083600 -0.229800 6.961043 4.265022 -76.134300 -10.116882 -15.070699 57.595269 -1.131894 9.691132 -11.670873 -0.034000 1.190200 -3.272300 6.265908 13.327344 30.575197 1.850230 6.525779 -7.236384 -3.147117 -11.212876 -4.798761 -2.237200 -6.439000 2.723100 -68.497974 -33.553515 80.717582 86.237215 -63.697421 -56.149148 0.876134 -0.187356 26.301754 -7.125000 0.000000 0.000000 -16.363878 68.529515 -58.695078 -14.771114 21.901069 -1.853540 -0.756970 0.740661 7.145875 7.125000 0.000000 0.000000 
2.137609 16.280999 -3.174351 1.205021 -13.504543 39.451173 -17.878973 -6.326086 -78.865301 5.938951 16.845462 48.185983 -0.108631 -18.730418 -0.610859 0.000200 0.080800 0.222000 7.343690 4.203006 -76.402999 -10.148953 -15.089042 57.697948 -1.151321 9.646472 -11.900520 -0.083800 1.867600 -5.139800 6.433027 13.382440 30.593152 1.772367 6.566280 -7.243002 -3.146543 -11.256646 -5.028878 -2.217800 -6.465400 2.634100 -68.297118 -33.522266 80.731087 86.882955 -63.710015 -56.671927 0.883398 -0.176257 26.341995 -7.125000 0.000000 0.000000 -17.081557 68.282678 -59.214427 -14.790083 21.856189 -1.851380 -0.787635 0.745448 6.836816 7.125000 0.000000 0.000000 
2.152528 16.266772 -3.146489 1.142037 -13.024896 39.740954 -17.761659 -6.548065 -79.265494 6.019245 16.915969 48.464133 -0.152161 -19.030824 -0.404067 0.006200 0.506700 1.392300 7.671505 3.918867 -76.707542 -10.189922 -15.122140 57.850374 -1.163504 9.372261 -12.175663 -0.207200 2.930800 -8.086000 6.679449 13.325856 30.576869 1.718918 6.560834 -7.303168 -3.222542 -11.307815 -5.314271 -2.212500 -6.495700 2.501000 -68.077909 -33.483970 80.749238 87.683439 -63.720363 -57.320571 0.886549 -0.165418 26.384278 -7.125000 0.000000 0.000000 -17.692445 68.046227 -59.677553 -14.826196 21.844794 -1.847293 -0.818661 0.767790 6.680947 7.125000 0.000000 0.000000 
2.169720 16.257287 -3.121788 1.283762 -12.699320 39.957625 -17.975379 -6.738128 -79.616486 6.091950 16.978044 48.720061 -0.199385 -19.435436 -0.273884 0.014600 0.780000 2.143700 7.663065 3.619957 -77.018977 -10.242048 -15.163573 58.051977 -1.172481 9.166446 -12.386653 -0.292700 3.479000 -9.615200 6.853030 13.240280 30.588198 1.738216 6.537049 -7.337384 -3.161491 -11.423775 -5.660077 -2.150400 -6.556600 2.351700 -67.917451 -33.446277 80.799004 88.325665 -63.723140 -57.843566 0.888515 -0.162866 26.455904 -7.125000 0.000000 0.000000 -18.166982 67.817014 -60.021486 -14.874736 21.875117 -1.859107 -0.830947 0.768361 6.689585 7.125000 0.000000 0.000000 
